<svg width="7" height="7" viewBox="0 0 7 7" fill="none" xmlns="http://www.w3.org/2000/svg">
<path fill-rule="evenodd" clip-rule="evenodd" d="M6.68198 0.317967C6.43093 0.0669155 6.02389 0.0669157 5.77284 0.317967L3.5 2.59081L1.22716 0.317967C0.976105 0.0669155 0.569071 0.0669155 0.31802 0.317967C0.0669683 0.569018 0.0669684 0.976053 0.31802 1.2271L2.59086 3.49995L0.31802 5.77279C0.0669683 6.02384 0.0669683 6.43088 0.31802 6.68193C0.569071 6.93298 0.976105 6.93298 1.22716 6.68193L3.5 4.40908L5.77284 6.68193C6.02389 6.93298 6.43093 6.93298 6.68198 6.68193C6.93303 6.43088 6.93303 6.02384 6.68198 5.77279L4.40914 3.49995L6.68198 1.2271C6.93303 0.976053 6.93303 0.569018 6.68198 0.317967Z" fill="#FFFFFF"/>
</svg>
