<svg width="24" height="20" viewBox="0 0 24 20" fill="none" xmlns="http://www.w3.org/2000/svg">
<path d="M2 2.88892V8.22225H7.45455" stroke="#383838" stroke-width="1.5" stroke-linecap="round" stroke-linejoin="round"/>
<path d="M22 17.1111V11.7778H16.5455" stroke="#383838" stroke-width="1.8" stroke-linecap="round" stroke-linejoin="round"/>
<path d="M13.9727 1.46705L14.1347 0.734756L13.9727 1.46705ZM5.7023 3.80215L6.20972 4.35444C6.21524 4.34937 6.22068 4.34422 6.22605 4.33899L5.7023 3.80215ZM20.4234 7.0781L19.7182 7.33333L19.7182 7.33334L20.4234 7.0781ZM19.9734 8.03857L20.2286 8.74381L20.2286 8.74381L19.9734 8.03857ZM19.0129 7.58857L19.7182 7.33334L19.7182 7.33333L19.0129 7.58857ZM13.6486 2.93164L13.8106 2.19934L13.6486 2.93164ZM6.74265 4.88279L6.21818 4.34667L6.21818 4.34667L6.74265 4.88279ZM6.72561 4.89895L7.23303 5.45124L7.23305 5.45122L6.72561 4.89895ZM2.50743 8.77451L2 8.22222L2.50743 8.77451ZM1.44771 8.72965L0.895429 9.23708L0.895429 9.23708L1.44771 8.72965ZM1.49257 7.66994L2 8.22222L2 8.22222L1.49257 7.66994ZM22.5074 12.3301L22 11.7778L22 11.7778L22.5074 12.3301ZM22.5523 11.2704L23.1046 10.7629L23.1046 10.7629L22.5523 11.2704ZM18.2977 16.1978L17.7903 15.6456C17.7848 15.6506 17.7793 15.6558 17.774 15.661L18.2977 16.1978ZM10.0273 18.533L10.1894 17.8007L10.1894 17.8007L10.0273 18.533ZM3.57658 12.9219L4.28182 12.6667L4.28182 12.6667L3.57658 12.9219ZM4.02659 11.9614L4.28182 12.6667L4.02659 11.9614ZM4.98705 12.4114L5.69229 12.1562L5.69229 12.1562L4.98705 12.4114ZM10.3514 17.0684L10.5134 16.3361L10.5134 16.3361L10.3514 17.0684ZM17.2573 15.1172L17.7818 15.6533L17.7818 15.6533L17.2573 15.1172ZM17.2744 15.101L17.7818 15.6534L17.7818 15.6533L17.2744 15.101ZM21.4926 11.2255L20.9851 10.6732L20.9851 10.6732L21.4926 11.2255ZM14.1347 0.734756C10.9104 0.0214447 7.53062 0.970586 5.17855 3.26532L6.22605 4.33899C8.21169 2.40174 11.0742 1.59395 13.8106 2.19934L14.1347 0.734756ZM21.1287 6.82287C20.0126 3.73913 17.3647 1.44935 14.1347 0.734756L13.8106 2.19934C16.5507 2.80554 18.781 4.74388 19.7182 7.33333L21.1287 6.82287ZM20.2286 8.74381C21.0076 8.46188 21.4106 7.60185 21.1287 6.82287L19.7182 7.33334L19.7182 7.33334L20.2286 8.74381ZM18.3077 7.8438C18.5896 8.62278 19.4497 9.02573 20.2286 8.74381L19.7182 7.33333L19.7182 7.33334L18.3077 7.8438ZM13.4866 3.66393C15.7365 4.16169 17.5494 5.74843 18.3077 7.8438L19.7182 7.33333C18.781 4.74389 16.5507 2.80554 13.8106 2.19934L13.4866 3.66393ZM7.26713 5.41892C8.88664 3.8346 11.2351 3.16582 13.4866 3.66393L13.8106 2.19934C11.0706 1.59315 8.20412 2.40389 6.21818 4.34667L7.26713 5.41892ZM7.23305 5.45122C7.24456 5.44065 7.25592 5.42988 7.26713 5.41891L6.21818 4.34667L6.21816 4.34668L7.23305 5.45122ZM3.01485 9.32679L7.23303 5.45124L6.21818 4.34667L2 8.22222L3.01485 9.32679ZM0.895429 9.23708C1.45592 9.84711 2.40481 9.88728 3.01485 9.32679L2 8.22222L2 8.22222L0.895429 9.23708ZM0.985149 7.11765C0.375111 7.67814 0.334942 8.62704 0.895429 9.23708L2 8.22222L2 8.22222L0.985149 7.11765ZM5.19487 3.24987L0.985149 7.11765L2 8.22222L6.20972 4.35444L5.19487 3.24987ZM23.0149 12.8824C23.6249 12.3219 23.6651 11.373 23.1046 10.7629L22 11.7778L22 11.7778L23.0149 12.8824ZM18.8051 16.7501L23.0149 12.8824L22 11.7778L17.7903 15.6456L18.8051 16.7501ZM9.86533 19.2652C13.0896 19.9786 16.4694 19.0294 18.8214 16.7347L17.774 15.661C15.7883 17.5983 12.9258 18.4061 10.1894 17.8007L9.86533 19.2652ZM2.87135 13.1771C3.98738 16.2609 6.63532 18.5507 9.86533 19.2652L10.1894 17.8007C7.44928 17.1945 5.21897 15.2561 4.28182 12.6667L2.87135 13.1771ZM3.77136 11.2562C2.99237 11.5381 2.58943 12.3981 2.87135 13.1771L4.28182 12.6667L4.28182 12.6667L3.77136 11.2562ZM5.69229 12.1562C5.41037 11.3772 4.55034 10.9743 3.77136 11.2562L4.28182 12.6667L4.28182 12.6667L5.69229 12.1562ZM10.5134 16.3361C8.26346 15.8383 6.45062 14.2516 5.69229 12.1562L4.28182 12.6667C5.21896 15.2561 7.44927 17.1945 10.1894 17.8007L10.5134 16.3361ZM16.7329 14.5811C15.1134 16.1654 12.7649 16.8342 10.5134 16.3361L10.1894 17.8007C12.9294 18.4069 15.7959 17.5961 17.7818 15.6533L16.7329 14.5811ZM16.767 14.5487C16.7554 14.5594 16.7441 14.5701 16.7328 14.5811L17.7818 15.6533L17.7818 15.6534L16.767 14.5487ZM20.9851 10.6732L16.767 14.5488L17.7818 15.6533L22 11.7778L20.9851 10.6732ZM23.1046 10.7629C22.5441 10.1529 21.5952 10.1127 20.9851 10.6732L22 11.7778L22 11.7778L23.1046 10.7629Z" fill="#383838"/>
</svg>
