<svg width="22" height="21" viewBox="0 0 22 21" fill="none" xmlns="http://www.w3.org/2000/svg">
<path d="M2 16V10C2 5.02944 6.02944 1 11 1C15.9706 1 20 5.02944 20 10V16" stroke="#FF6D26" stroke-width="1.5" stroke-linecap="round" stroke-linejoin="round"/>
<path d="M19.25 12.75H20C20 12.3358 19.6642 12 19.25 12V12.75ZM2.75 12.75V12C2.33579 12 2 12.3358 2 12.75H2.75ZM16.5 14C16.5 13.7239 16.7239 13.5 17 13.5V12C15.8954 12 15 12.8954 15 14H16.5ZM16.5 17V14H15V17H16.5ZM17 17.5C16.7239 17.5 16.5 17.2761 16.5 17H15C15 18.1046 15.8954 19 17 19V17.5ZM18 17.5H17V19H18V17.5ZM18.5 17C18.5 17.2761 18.2761 17.5 18 17.5V19C19.1046 19 20 18.1046 20 17H18.5ZM18.5 12.75V17H20V12.75H18.5ZM17 13.5H19.25V12H17V13.5ZM17 10.5C15.067 10.5 13.5 12.067 13.5 14H15C15 12.8954 15.8954 12 17 12V10.5ZM20 10.5H17V12H20V10.5ZM21.5 12C21.5 11.1716 20.8284 10.5 20 10.5V12H21.5ZM21.5 17V12H20V17H21.5ZM18 20.5C19.933 20.5 21.5 18.933 21.5 17H20C20 18.1046 19.1046 19 18 19V20.5ZM17 20.5H18V19H17V20.5ZM13.5 17C13.5 18.933 15.067 20.5 17 20.5V19C15.8954 19 15 18.1046 15 17H13.5ZM13.5 14V17H15V14H13.5ZM2 10.5C1.17157 10.5 0.5 11.1716 0.5 12H2V10.5ZM5 10.5H2V12H5V10.5ZM8.5 14C8.5 12.067 6.933 10.5 5 10.5V12C6.10457 12 7 12.8954 7 14H8.5ZM8.5 17V14H7V17H8.5ZM5 20.5C6.933 20.5 8.5 18.933 8.5 17H7C7 18.1046 6.10457 19 5 19V20.5ZM4 20.5H5V19H4V20.5ZM0.5 17C0.5 18.933 2.067 20.5 4 20.5V19C2.89543 19 2 18.1046 2 17H0.5ZM0.5 12V17H2V12H0.5ZM3.5 17V12.75H2V17H3.5ZM4 17.5C3.72386 17.5 3.5 17.2761 3.5 17H2C2 18.1046 2.89543 19 4 19V17.5ZM5 17.5H4V19H5V17.5ZM5.5 17C5.5 17.2761 5.27614 17.5 5 17.5V19C6.10457 19 7 18.1046 7 17H5.5ZM5.5 14V17H7V14H5.5ZM5 13.5C5.27614 13.5 5.5 13.7239 5.5 14H7C7 12.8954 6.10457 12 5 12V13.5ZM2.75 13.5H5V12H2.75V13.5Z" fill="#FF6D26"/>
</svg>
